<svg width="70" height="70" viewBox="0 0 70 70" fill="none" xmlns="http://www.w3.org/2000/svg">
<path d="M29.896 37.9167C29.896 39.9292 28.2627 41.5625 26.2502 41.5625C24.2377 41.5625 22.6043 39.9292 22.6043 37.9167C22.6043 35.9042 24.2377 34.2708 26.2502 34.2708C28.2627 34.2708 29.896 35.9042 29.896 37.9167ZM43.7502 34.2708C41.7377 34.2708 40.1043 35.9042 40.1043 37.9167C40.1043 39.9292 41.7377 41.5625 43.7502 41.5625C45.7627 41.5625 47.396 39.9292 47.396 37.9167C47.396 35.9042 45.7627 34.2708 43.7502 34.2708ZM64.1668 35C64.1668 51.1 51.1002 64.1667 35.0002 64.1667C18.9002 64.1667 5.8335 51.1 5.8335 35C5.8335 18.9 18.9002 5.83333 35.0002 5.83333C51.1002 5.83333 64.1668 18.9 64.1668 35ZM31.0918 12.0167C35.1752 18.7833 42.5835 23.3333 51.0418 23.3333C52.3835 23.3333 53.696 23.1875 54.9502 22.9833C50.8668 16.2167 43.4585 11.6667 35.0002 11.6667C33.6585 11.6667 32.346 11.8125 31.0918 12.0167ZM12.8918 27.6208C17.8793 24.7917 21.7293 20.1833 23.5668 14.6708C18.5793 17.5 14.7293 22.1083 12.8918 27.6208ZM58.3335 35C58.3335 32.725 57.9835 30.5375 57.371 28.4667C55.3293 28.9042 53.2293 29.1667 51.0418 29.1667C41.9127 29.1667 33.7752 24.9667 28.4085 18.4042C25.346 25.8708 19.2502 31.7333 11.6668 34.5917C11.696 34.7083 11.6668 34.8542 11.6668 35C11.6668 47.8625 22.1377 58.3333 35.0002 58.3333C47.8627 58.3333 58.3335 47.8625 58.3335 35Z" fill="white"/>
</svg>
